<svg width="24" height="24" viewBox="0 0 24 24" fill="none" xmlns="http://www.w3.org/2000/svg">
<path d="M1 17.2C1 16.6333 1.146 16.1123 1.438 15.637C1.73 15.1617 2.11733 14.7993 2.6 14.55C3.63333 14.0333 4.68334 13.6457 5.75 13.387C6.81667 13.1283 7.9 12.9993 9 13C10.1 13 11.1833 13.1293 12.25 13.388C13.3167 13.6467 14.3667 14.034 15.4 14.55C15.8833 14.8 16.271 15.1627 16.563 15.638C16.855 16.1133 17.0007 16.634 17 17.2V18C17 18.55 16.804 19.021 16.412 19.413C16.02 19.805 15.5493 20.0007 15 20H3C2.45 20 1.979 19.804 1.587 19.412C1.195 19.02 0.999335 18.5493 1 18V17.2ZM21 20H18.45C18.6333 19.7 18.771 19.379 18.863 19.037C18.955 18.695 19.0007 18.3493 19 18V17C19 16.2667 18.7957 15.5623 18.387 14.887C17.9783 14.2117 17.3993 13.6327 16.65 13.15C17.5 13.25 18.3 13.421 19.05 13.663C19.8 13.905 20.5 14.2007 21.15 14.55C21.75 14.8833 22.2083 15.254 22.525 15.662C22.8417 16.07 23 16.516 23 17V18C23 18.55 22.8043 19.021 22.413 19.413C22.0217 19.805 21.5507 20.0007 21 20ZM9 12C7.9 12 6.95834 11.6083 6.175 10.825C5.39167 10.0417 5 9.1 5 8C5 6.9 5.39167 5.95833 6.175 5.175C6.95834 4.39166 7.9 4 9 4C10.1 4 11.0417 4.39166 11.825 5.175C12.6083 5.95833 13 6.9 13 8C13 9.1 12.6083 10.0417 11.825 10.825C11.0417 11.6083 10.1 12 9 12ZM19 8C19 9.1 18.6083 10.0417 17.825 10.825C17.0417 11.6083 16.1 12 15 12C14.8167 12 14.5833 11.979 14.3 11.937C14.0167 11.895 13.7833 11.8493 13.6 11.8C14.05 11.2667 14.396 10.675 14.638 10.025C14.88 9.37499 15.0007 8.7 15 8C15 7.3 14.8793 6.62499 14.638 5.975C14.3967 5.325 14.0507 4.73333 13.6 4.19999C13.8333 4.11666 14.0667 4.06233 14.3 4.037C14.5333 4.01166 14.7667 3.99933 15 4C16.1 4 17.0417 4.39166 17.825 5.175C18.6083 5.95833 19 6.9 19 8ZM3 18H15V17.2C15 17.0167 14.954 16.85 14.862 16.7C14.77 16.55 14.6493 16.4333 14.5 16.35C13.6 15.9 12.6917 15.5627 11.775 15.338C10.8583 15.1133 9.93334 15.0007 9 15C8.06667 15 7.14167 15.1127 6.225 15.338C5.30834 15.5633 4.4 15.9007 3.5 16.35C3.35 16.4333 3.229 16.55 3.137 16.7C3.045 16.85 2.99934 17.0167 3 17.2V18ZM9 10C9.55 10 10.021 9.804 10.413 9.41199C10.805 9.01999 11.0007 8.54933 11 8C11 7.45 10.804 6.979 10.412 6.587C10.02 6.195 9.54934 5.99933 9 6C8.45 6 7.979 6.196 7.587 6.588C7.195 6.98 6.99934 7.45066 7 8C7 8.55 7.196 9.021 7.588 9.413C7.98 9.805 8.45067 10.0007 9 10Z" fill="#323232"/>
</svg>
