<svg width="24" height="24" viewBox="0 0 24 24" fill="none" xmlns="http://www.w3.org/2000/svg">
<path d="M11 13V16C11 16.2833 11.096 16.521 11.288 16.713C11.48 16.905 11.7173 17.0007 12 17C12.2833 17 12.521 16.904 12.713 16.712C12.905 16.52 13.0007 16.2827 13 16V13H16C16.2833 13 16.521 12.904 16.713 12.712C16.905 12.52 17.0007 12.2827 17 12C17 11.7167 16.904 11.479 16.712 11.287C16.52 11.095 16.2827 10.9993 16 11H13V8C13 7.71667 12.904 7.479 12.712 7.287C12.52 7.095 12.2827 6.99934 12 7C11.7167 7 11.479 7.096 11.287 7.288C11.095 7.48 10.9993 7.71734 11 8V11H8C7.71667 11 7.479 11.096 7.287 11.288C7.095 11.48 6.99934 11.7173 7 12C7 12.2833 7.096 12.521 7.288 12.713C7.48 12.905 7.71734 13.0007 8 13H11ZM5 21C4.45 21 3.979 20.804 3.587 20.412C3.195 20.02 2.99934 19.5493 3 19V5C3 4.45 3.196 3.979 3.588 3.587C3.98 3.195 4.45067 2.99934 5 3H19C19.55 3 20.021 3.196 20.413 3.588C20.805 3.98 21.0007 4.45067 21 5V19C21 19.55 20.804 20.021 20.412 20.413C20.02 20.805 19.5493 21.0007 19 21H5ZM5 19H19V5H5V19Z" fill="#323232"/>
</svg>
